<svg width="43" height="60" viewBox="0 0 43 60" fill="none" xmlns="http://www.w3.org/2000/svg">
<path d="M24.7579 33.5282C25.4628 32.8236 26.6056 32.8236 27.3106 33.5282C27.3778 33.5954 27.4369 33.6686 27.4913 33.743C27.7463 34.0275 27.9024 34.4022 27.9024 34.8143V41.7792C27.9024 42.6669 27.1827 43.3866 26.295 43.3866C25.4075 43.3863 24.6885 42.6667 24.6885 41.7792V38.704L22.7754 40.6171C22.4028 40.9896 21.908 41.1628 21.42 41.1415C20.9318 41.1629 20.4363 40.9898 20.0635 40.6171L18.2588 38.8124V41.7792C18.2588 42.6669 17.5391 43.3866 16.6514 43.3866C15.7638 43.3865 15.044 42.6668 15.044 41.7792V35.1942C14.9162 34.6128 15.0762 33.9804 15.5284 33.5282C16.2333 32.8232 17.3771 32.8233 18.0821 33.5282L21.42 36.8661L24.7579 33.5282Z" fill="url(#paint0_linear_330_1072)"/>
<path d="M13.0869 30.5127C11.2745 32.5371 10.171 35.2096 10.1709 38.1406C10.1709 44.46 15.2939 49.583 21.6133 49.583C27.9326 49.5829 33.0556 44.4599 33.0557 38.1406C33.0556 35.2096 31.952 32.5371 30.1396 30.5127H38.3975C38.6277 31.2105 38.8215 31.9268 38.9756 32.6592L41.502 33.3154C42.3838 33.5442 42.9998 34.34 43 35.251V39.7793C43 40.6928 42.381 41.4902 41.4961 41.7168L38.6377 42.4473C38.2722 43.7295 37.7828 44.9538 37.1865 46.1055L39.2109 49.7725C39.6409 50.5521 39.5034 51.5225 38.874 52.1523L35.5742 55.4521C34.9598 56.0663 34.0189 56.2135 33.2461 55.8164L29.5732 53.9287C28.4003 54.5582 27.1537 55.0525 25.8506 55.3936L25.167 58.0293C24.9382 58.9112 24.1425 59.5272 23.2314 59.5273H18.7031C17.7896 59.5273 16.9922 58.9085 16.7656 58.0234L15.9824 54.9639C14.9383 54.591 13.9373 54.1175 12.9893 53.5537L9.33691 55.6875C8.5521 56.1456 7.55663 56.0166 6.91406 55.374L3.70801 52.168C3.06245 51.5223 2.93645 50.5212 3.40137 49.7354L5.81348 45.6562C5.32645 44.653 4.91874 43.5978 4.60254 42.5L1.49805 41.6943C0.616169 41.4656 8.85826e-05 40.6698 0 39.7588V35.2305C0.000155913 34.3171 0.619028 33.5195 1.50391 33.293L4.26367 32.5869C4.41515 31.8796 4.60449 31.1876 4.82715 30.5127H13.0869ZM21.6133 0C23.3119 0.000133382 24.6895 1.3775 24.6895 3.07617C24.6894 4.08111 24.2044 4.97001 23.459 5.53125V8.89941H30.3076C33.9857 8.89952 37.0823 11.3833 38.0156 14.7646H38.6836C39.7881 14.7648 40.6836 15.6602 40.6836 16.7646V21.377C40.6834 22.4813 39.7879 23.3768 38.6836 23.377H38.2227V26.0674C38.2227 26.6196 37.7748 27.0672 37.2227 27.0674H6.00391C5.45162 27.0674 5.00391 26.6197 5.00391 26.0674V23.377H4.54297C3.4385 23.377 2.54313 22.4814 2.54297 21.377V16.7646C2.54297 15.6601 3.4384 14.7646 4.54297 14.7646H5.37598C6.30937 11.3834 9.40489 8.89941 13.083 8.89941H19.7676V5.53125C19.0222 4.97001 18.5382 4.08105 18.5381 3.07617C18.5381 1.37749 19.9146 0.000125623 21.6133 0ZM14.2314 14.7646C12.5327 14.7647 11.1553 16.1421 11.1553 17.8408C11.1557 19.5392 12.533 20.916 14.2314 20.916C15.9297 20.9157 17.3062 19.5391 17.3066 17.8408C17.3066 16.1422 15.93 14.7649 14.2314 14.7646ZM30.2256 14.7646C28.5269 14.7648 27.1494 16.1421 27.1494 17.8408C27.1498 19.5391 28.5272 20.9159 30.2256 20.916C31.924 20.9159 33.3013 19.5391 33.3018 17.8408C33.3018 16.1421 31.9242 14.7648 30.2256 14.7646Z" fill="url(#paint1_linear_330_1072)"/>
<defs>
<linearGradient id="paint0_linear_330_1072" x1="21.4519" y1="32.9995" x2="21.4519" y2="43.3866" gradientUnits="userSpaceOnUse">
<stop stop-color="#2E80E4"/>
<stop offset="1" stop-color="#ECA6BB"/>
</linearGradient>
<linearGradient id="paint1_linear_330_1072" x1="21.5" y1="0" x2="21.5" y2="59.5273" gradientUnits="userSpaceOnUse">
<stop stop-color="#2E80E4"/>
<stop offset="1" stop-color="#ECA6BB"/>
</linearGradient>
</defs>
</svg>
